# xmcd CD database file
#
# Track frame offsets:
#	150
#	20612
#	35785
#	55464
#	76394
#	95973
#	115131
#	134724
#	157522
#	178647
#	192172
#	213361
#	235092
#	260801
#	283232
#	296834
#	311366
#	333642
#
# Disc length: 4679 seconds
#
# Revision: 0
# Processed by: cddbd v1.5.2PL0 Copyright (c) Steve Scherf et al.
# Submitted via: CDex 1.70beta2
#
DISCID=17124512
DTITLE=Steve Berry - The Amber Room Disc 3
DYEAR=2003
DGENRE=Audio Book
TTITLE0=The Amber Room Disc 3-01
TTITLE1=The Amber Room Disc 3-02
TTITLE2=The Amber Room Disc 3-03
TTITLE3=The Amber Room Disc 3-04
TTITLE4=The Amber Room Disc 3-05
TTITLE5=The Amber Room Disc 3-06
TTITLE6=The Amber Room Disc 3-07
TTITLE7=The Amber Room Disc 3-08
TTITLE8=The Amber Room Disc 3-09
TTITLE9=The Amber Room Disc 3-10
TTITLE10=The Amber Room Disc 3-11
TTITLE11=The Amber Room Disc 3-12
TTITLE12=The Amber Room Disc 3-13
TTITLE13=The Amber Room Disc 3-14
TTITLE14=The Amber Room Disc 3-15
TTITLE15=The Amber Room Disc 3-16
TTITLE16=The Amber Room Disc 3-17
TTITLE17=The Amber Room Disc 3-18
EXTD=YEAR: 2003
EXTT0=
EXTT1=
EXTT2=
EXTT3=
EXTT4=
EXTT5=
EXTT6=
EXTT7=
EXTT8=
EXTT9=
EXTT10=
EXTT11=
EXTT12=
EXTT13=
EXTT14=
EXTT15=
EXTT16=
EXTT17=
PLAYORDER=
